<?xml version="1.0" encoding="utf-8"?>
<!-- Generator: Adobe Illustrator 16.0.4, SVG Export Plug-In . SVG Version: 6.00 Build 0)  -->
<!DOCTYPE svg PUBLIC "-//W3C//DTD SVG 1.1//EN" "http://www.w3.org/Graphics/SVG/1.1/DTD/svg11.dtd">
<svg version="1.1" xmlns="http://www.w3.org/2000/svg" xmlns:xlink="http://www.w3.org/1999/xlink" x="0px" y="0px" width="446px"
	 height="170px" viewBox="0 0 446 170" enable-background="new 0 0 446 170" xml:space="preserve">
<g id="BNackground" display="none">
</g>
<g id="Layer_1">
	<g>
		<polygon fill="#007EE5" points="76.116,39.021 46.486,58.367 66.974,74.773 96.849,56.326 		"/>
		<polygon fill="#007EE5" points="46.486,91.18 76.116,110.526 96.849,93.22 66.974,74.773 		"/>
		<polygon fill="#007EE5" points="96.849,93.22 117.582,110.526 147.211,91.18 126.724,74.773 		"/>
		<polygon fill="#007EE5" points="147.211,58.367 117.582,39.021 96.849,56.326 126.724,74.773 		"/>
		<polygon fill="#007EE5" points="96.909,96.943 76.116,114.198 67.219,108.389 67.219,114.901 96.909,132.707 126.601,114.901 
			126.601,108.389 117.704,114.198 		"/>
	</g>
</g>
<g id="Layer_2">
	<g>
		<path fill="#007EE5" d="M162.297,110.491h13.698c3.992,0,9.628,0,14.248-3.594c5.637-4.296,8.533-13.046,8.533-22.814
			c0-25.625-16.206-25.704-24.19-25.704h-12.289V110.491z M173.727,67.365h1.955c4.619,0,10.961,0.547,10.961,16.562
			c0,17.032-6.419,17.58-10.961,17.58h-1.955V67.365z"/>
		<path fill="#007EE5" d="M202.712,71.974v38.517h10.723V93.851c0-2.97,0-11.876,7.905-11.876c0.393,0,0.861,0,1.799,0.156V71.662
			c-0.546-0.156-1.092-0.235-1.878-0.235c-6.261,0-8.14,6.564-9.079,9.845v-9.297H202.712z"/>
		<path fill="#007EE5" d="M240.333,71.114c-11.506,0-15.732,8.048-15.732,20.08c0,12.422,4.538,20.078,15.655,20.078
			c11.272,0,15.734-7.733,15.734-20.078C255.99,79.162,251.764,71.114,240.333,71.114z M240.333,78.615
			c3.29,0,4.541,2.656,4.541,12.579c0,10.313-1.409,12.58-4.541,12.58c-3.209,0-4.617-2.345-4.617-12.58
			c0-9.453,1.096-12.579,4.54-12.579H240.333z"/>
		<path fill="#007EE5" d="M259.171,71.974v51.565h10.568V107.68c1.174,1.249,3.131,3.357,7.358,3.357
			c12.289,0,13.073-14.844,13.073-20.312c0-6.484-1.252-12.501-5.011-16.329c-1.877-1.875-4.774-2.97-7.357-2.97
			c-5.245,0-7.359,3.828-8.69,6.329v-5.781H259.171z M269.739,87.443c0-3.437,0-8.905,4.853-8.905c4.149,0,4.462,5.39,4.462,12.187
			c0,8.126-0.39,12.891-4.775,12.891c-4.539,0-4.539-3.282-4.539-8.829V87.443z"/>
		<path fill="#007EE5" d="M293.363,58.379v52.112h6.342c0.86-2.734,1.253-3.515,2.036-5c0.938,1.953,2.739,5.781,8.925,5.781
			c2.035,0,4.148-0.39,6.262-1.483c7.046-3.672,7.516-15.235,7.516-18.83c0-9.296-2.975-19.533-12.449-19.533
			c-4.617,0-6.729,2.501-8.062,4.143V58.379H293.363z M303.932,85.569c0-1.953,0-3.906,1.255-5.392
			c0.782-1.015,2.034-1.639,3.443-1.639c3.053,0,4.696,2.578,4.696,12.734c0,9.923-1.485,12.578-4.854,12.578
			c-4.541,0-4.541-4.999-4.541-9.375V85.569z"/>
		<path fill="#007EE5" d="M342.872,71.114c-11.509,0-15.736,8.048-15.736,20.08c0,12.422,4.542,20.078,15.657,20.078
			c11.272,0,15.734-7.733,15.734-20.078C358.527,79.162,354.299,71.114,342.872,71.114z M342.872,78.615
			c3.285,0,4.539,2.656,4.539,12.579c0,10.313-1.408,12.58-4.539,12.58c-3.211,0-4.622-2.345-4.622-12.58
			c0-9.453,1.098-12.579,4.543-12.579H342.872z"/>
		<path fill="#007EE5" d="M358.11,71.974l9.943,18.83l-11.429,19.688h9.313l6.498-11.562l5.636,11.562h11.664l-11.508-21.563
			l9.94-16.954h-9.312l-4.933,8.906l-4.148-8.906H358.11z"/>
	</g>
	<g display="none">
		
			<line display="inline" fill="none" stroke="#377ABC" stroke-width="0.25" stroke-miterlimit="10" x1="55.692" y1="58.375" x2="402.531" y2="58.375"/>
		
			<line display="inline" fill="none" stroke="#377ABC" stroke-width="0.25" stroke-miterlimit="10" x1="55.692" y1="110.496" x2="402.531" y2="110.496"/>
	</g>
</g>
</svg>
