<?xml version="1.0" ?>
<svg xmlns="http://www.w3.org/2000/svg">
	<!--
	Polymer Icons
	Retrieved from https://github.com/Polymer/core-icons

	Copyright (c) 2014 The Polymer Project Authors. All rights reserved.
	This code may only be used under the BSD style license found at http://polymer.github.io/LICENSE.txt
	The complete set of authors may be found at http://polymer.github.io/AUTHORS.txt
	The complete set of contributors may be found at http://polymer.github.io/CONTRIBUTORS.txt
	Code distributed by Google as part of the polymer project is also
	subject to an additional IP rights grant found at http://polymer.github.io/PATENTS.txt
	-->
	<g id="arrow-back">
		<path d="M20,11H7.8l5.6-5.6L12,4l-8,8l8,8l1.4-1.4L7.8,13H20V11z"/>
	</g>
	<g id="lock">
		<path d="M18,8h-1V6c0-2.8-2.2-5-5-5C9.2,1,7,3.2,7,6v2H6c-1.1,0-2,0.9-2,2v10c0,1.1,0.9,2,2,2h12c1.1,0,2-0.9,2-2V10C20,8.9,19.1,8,18,8z M12,17c-1.1,0-2-0.9-2-2s0.9-2,2-2c1.1,0,2,0.9,2,2S13.1,17,12,17z M15.1,8H8.9V6c0-1.7,1.4-3.1,3.1-3.1c1.7,0,3.1,1.4,3.1,3.1V8z"/>
	</g>
	<g id="lock-outline">
		<path d="M18,8h-1V6c0-2.8-2.2-5-5-5C9.2,1,7,3.2,7,6v2H6c-1.1,0-2,0.9-2,2v10c0,1.1,0.9,2,2,2h12c1.1,0,2-0.9,2-2V10C20,8.9,19.1,8,18,8z M12,2.9c1.7,0,3.1,1.4,3.1,3.1v2H9V6H8.9C8.9,4.3,10.3,2.9,12,2.9z M18,20H6V10h12V20z M12,17c1.1,0,2-0.9,2-2s-0.9-2-2-2c-1.1,0-2,0.9-2,2S10.9,17,12,17z"/>
	</g>
	<g id="menu">
		<path d="M3,18h18v-2H3V18z M3,13h18v-2H3V13z M3,6v2h18V6H3z"/>
	</g>
	<g id="search">
		<path d="M15.5,14h-0.8l-0.3-0.3c1-1.1,1.6-2.6,1.6-4.2C16,5.9,13.1,3,9.5,3C5.9,3,3,5.9,3,9.5S5.9,16,9.5,16c1.6,0,3.1-0.6,4.2-1.6l0.3,0.3v0.8l5,5l1.5-1.5L15.5,14z M9.5,14C7,14,5,12,5,9.5S7,5,9.5,5C12,5,14,7,14,9.5S12,14,9.5,14z"/>
	</g>
	<!--
	Material Design Icons

	Retrieved from https://github.com/google/material-design-icons
	License: https://github.com/google/material-design-icons/blob/master/LICENSE
	-->
	<g id="add">
		<path d="M19 13h-6v6h-2v-6h-6v-2h6v-6h2v6h6v2z"/>
		<path d="M0 0h24v24h-24z" fill="none"/>
	</g>
	<g id="clear">
		<path d="M19 6.41l-1.41-1.41-5.59 5.59-5.59-5.59-1.41 1.41 5.59 5.59-5.59 5.59 1.41 1.41 5.59-5.59 5.59 5.59 1.41-1.41-5.59-5.59z"/>
		<path d="M0 0h24v24h-24z" fill="none"/>
	</g>
	<g id="done">
		<path d="M0 0h24v24h-24z" fill="none"/>
		<path d="M9 16.17l-4.17-4.17-1.42 1.41 5.59 5.59 12-12-1.41-1.41z"/>
	</g>
</svg>
