<?xml version="1.0" ?>
<svg xmlns="http://www.w3.org/2000/svg">
	<!--
	Polymer Icons
	Retrieved from https://github.com/Polymer/core-icons

	Copyright (c) 2014 The Polymer Project Authors. All rights reserved.
	This code may only be used under the BSD style license found at http://polymer.github.io/LICENSE.txt
	The complete set of authors may be found at http://polymer.github.io/AUTHORS.txt
	The complete set of contributors may be found at http://polymer.github.io/CONTRIBUTORS.txt
	Code distributed by Google as part of the polymer project is also
	subject to an additional IP rights grant found at http://polymer.github.io/PATENTS.txt
	-->
	<g id="arrow-back"><path d="M20,11H7.8l5.6-5.6L12,4l-8,8l8,8l1.4-1.4L7.8,13H20V11z"/></g>
	<g id="menu"><path d="M3,18h18v-2H3V18z M3,13h18v-2H3V13z M3,6v2h18V6H3z"/></g>
	<g id="search"><path d="M15.5,14h-0.8l-0.3-0.3c1-1.1,1.6-2.6,1.6-4.2C16,5.9,13.1,3,9.5,3C5.9,3,3,5.9,3,9.5S5.9,16,9.5,16c1.6,0,3.1-0.6,4.2-1.6l0.3,0.3v0.8l5,5l1.5-1.5L15.5,14z M9.5,14C7,14,5,12,5,9.5S7,5,9.5,5C12,5,14,7,14,9.5S12,14,9.5,14z"/></g>
</svg>
