<?xml version="1.0" encoding="UTF-8" standalone="no"?>
<!-- Created with Inkscape (http://www.inkscape.org/) -->

<svg
   xmlns:dc="http://purl.org/dc/elements/1.1/"
   xmlns:cc="http://creativecommons.org/ns#"
   xmlns:rdf="http://www.w3.org/1999/02/22-rdf-syntax-ns#"
   xmlns:svg="http://www.w3.org/2000/svg"
   xmlns="http://www.w3.org/2000/svg"
   xmlns:sodipodi="http://sodipodi.sourceforge.net/DTD/sodipodi-0.dtd"
   xmlns:inkscape="http://www.inkscape.org/namespaces/inkscape"
   width="19px"
   height="19px"
   viewBox="0 0 19 19"
   id="SVGRoot"
   version="1.1"
   inkscape:version="0.91+devel+osxmenu r12898"
   sodipodi:docname="monochrome-icon_19svg.svg"
   inkscape:export-filename="/Users/Sam/Projects/Icons/passcards/chrome/toolbar-icon_38.png"
   inkscape:export-xdpi="192"
   inkscape:export-ydpi="192">
  <sodipodi:namedview
     id="base"
     pagecolor="#3c3c3c"
     bordercolor="#666666"
     borderopacity="1.0"
     inkscape:pageopacity="0"
     inkscape:pageshadow="2"
     inkscape:zoom="8"
     inkscape:cx="17.707418"
     inkscape:cy="8.6242252"
     inkscape:document-units="px"
     inkscape:current-layer="layer1"
     showgrid="false"
     inkscape:window-width="1920"
     inkscape:window-height="970"
     inkscape:window-x="0"
     inkscape:window-y="23"
     inkscape:window-maximized="0"
     inkscape:grid-bbox="true"
     showborder="false"
     inkscape:showpageshadow="false"
     inkscape:object-paths="true"
     inkscape:snap-intersection-paths="true"
     inkscape:object-nodes="true"
     inkscape:snap-smooth-nodes="true"
     inkscape:snap-midpoints="true">
    <inkscape:grid
       type="xygrid"
       id="grid6095"
       empspacing="4" />
  </sodipodi:namedview>
  <defs
     id="defs5538">
    <clipPath
       clipPathUnits="userSpaceOnUse"
       id="clipPath9127">
      <path
         id="path9129"
         d="M 2,2 C 0.892,2 0,2.892 0,4 l 0,9 19,0 0,-9 C 19,2.892 18.108,2 17,2 L 2,2 Z m 7,2.0117188 c 1.269806,0.00178 2.400952,0.8028091 2.824219,2 L 17,6 l 0,2 -1,0.00586 0,1.0273437 -2,0 0,-1.0253906 -2.175781,0.00391 C 11.400952,9.2089057 10.269806,10.009719 9,10.011719 c -1.6568532,0 -3,-1.3431475 -3,-3.0000002 0,-1.6568534 1.3431468,-3 3,-3 z m 0,2 c -0.5522866,-10e-8 -1,0.447713 -1,1 0,0.5522869 0.4477134,1 1,1 0.5522867,0 1,-0.4477131 1,-1 0,-0.552287 -0.4477133,-1 -1,-1 z M 0,14 0,15 c 0,1.108 0.892,2 2,2 l 15,0 c 1.108,0 2,-0.892 2,-2 l 0,-1 -19,0 z"
         style="opacity:1;fill:#000000;fill-opacity:1;stroke:none;stroke-width:2;stroke-linecap:round;stroke-linejoin:round;stroke-miterlimit:4;stroke-dasharray:none;stroke-dashoffset:0;stroke-opacity:1"
         inkscape:connector-curvature="0" />
    </clipPath>
  </defs>
  <metadata
     id="metadata5541">
    <rdf:RDF>
      <cc:Work
         rdf:about="">
        <dc:format>image/svg+xml</dc:format>
        <dc:type
           rdf:resource="http://purl.org/dc/dcmitype/StillImage" />
        <dc:title></dc:title>
      </cc:Work>
    </rdf:RDF>
  </metadata>
  <g
     id="layer1"
     inkscape:groupmode="layer"
     inkscape:label="chrome"
     style="display:inline">
    <path
       style="opacity:1;fill:#ffffff;fill-opacity:1;stroke:none;stroke-width:8.45750618;stroke-linecap:round;stroke-linejoin:round;stroke-miterlimit:4;stroke-dasharray:none;stroke-dashoffset:0;stroke-opacity:1"
       d="M 2,2 C 0.892,2 0,2.892 0,4 l 0,9 19,0 0,-9 C 19,2.892 18.108,2 17,2 L 2,2 Z m 7,2.0117188 c 1.269806,0.00178 2.400952,0.8028091 2.824219,2 L 17,6 l 0,2 -1,0.00586 0,1.0273437 -2,0 0,-1.0253906 -2.175781,0.00391 C 11.400952,9.2089057 10.269806,10.009719 9,10.011719 c -1.6568532,0 -3,-1.3431475 -3,-3.0000002 0,-1.6568534 1.3431468,-3 3,-3 z m 0,2 c -0.5522866,-10e-8 -1,0.447713 -1,1 0,0.5522869 0.4477134,1 1,1 0.5522867,0 1,-0.4477131 1,-1 0,-0.552287 -0.4477133,-1 -1,-1 z M 0,14 0,15 c 0,1.108 0.892,2 2,2 l 15,0 c 1.108,0 2,-0.892 2,-2 l 0,-1 -19,0 z"
       id="rect6136"
       inkscape:connector-curvature="0" />
  </g>
</svg>
