<?xml version="1.0" encoding="UTF-8" standalone="no"?>
<!-- Created with Inkscape (http://www.inkscape.org/) -->

<svg
   xmlns:dc="http://purl.org/dc/elements/1.1/"
   xmlns:cc="http://creativecommons.org/ns#"
   xmlns:rdf="http://www.w3.org/1999/02/22-rdf-syntax-ns#"
   xmlns:svg="http://www.w3.org/2000/svg"
   xmlns="http://www.w3.org/2000/svg"
   xmlns:sodipodi="http://sodipodi.sourceforge.net/DTD/sodipodi-0.dtd"
   xmlns:inkscape="http://www.inkscape.org/namespaces/inkscape"
   width="128px"
   height="128px"
   viewBox="0 0 128 128"
   id="SVGRoot"
   version="1.1"
   inkscape:version="0.91+devel+osxmenu r12898"
   sodipodi:docname="icon128.svg"
   inkscape:export-filename="/Users/Sam/Projects/Icons/passcards/chrome/icon128.png"
   inkscape:export-xdpi="96"
   inkscape:export-ydpi="96"
   enable-background="new">
  <sodipodi:namedview
     id="base"
     pagecolor="#ffffff"
     bordercolor="#666666"
     borderopacity="1.0"
     inkscape:pageopacity="0.0"
     inkscape:pageshadow="2"
     inkscape:zoom="1"
     inkscape:cx="73.403018"
     inkscape:cy="66.733506"
     inkscape:document-units="px"
     inkscape:current-layer="g4661"
     showgrid="false"
     inkscape:window-width="1920"
     inkscape:window-height="970"
     inkscape:window-x="0"
     inkscape:window-y="23"
     inkscape:window-maximized="0"
     inkscape:grid-bbox="true"
     inkscape:object-paths="true"
     inkscape:snap-intersection-paths="true"
     inkscape:object-nodes="true"
     inkscape:snap-smooth-nodes="true"
     inkscape:snap-midpoints="true"
     showborder="true"
     showguides="false">
    <inkscape:grid
       type="xygrid"
       id="grid15247"
       empspacing="4" />
  </sodipodi:namedview>
  <defs
     id="defs14690">
    <clipPath
       clipPathUnits="userSpaceOnUse"
       id="clipPath18807">
      <rect
         ry="4"
         y="8"
         x="16"
         height="112"
         width="64"
         id="rect18809"
         style="opacity:1;fill:#009daf;fill-opacity:1;stroke:none;stroke-width:0;stroke-linecap:round;stroke-linejoin:round;stroke-miterlimit:4;stroke-dasharray:none;stroke-dashoffset:0;stroke-opacity:1" />
    </clipPath>
    <clipPath
       clipPathUnits="userSpaceOnUse"
       id="clipPath25678">
      <rect
         style="opacity:0.2;fill:#000000;fill-opacity:1;stroke:none;stroke-width:0;stroke-linecap:round;stroke-linejoin:round;stroke-miterlimit:4;stroke-dasharray:none;stroke-dashoffset:0;stroke-opacity:1"
         id="rect25680"
         width="1120"
         height="336"
         x="-944"
         y="-104"
         ry="1" />
    </clipPath>
  </defs>
  <metadata
     id="metadata14693">
    <rdf:RDF>
      <cc:Work
         rdf:about="">
        <dc:format>image/svg+xml</dc:format>
        <dc:type
           rdf:resource="http://purl.org/dc/dcmitype/StillImage" />
        <dc:title />
      </cc:Work>
    </rdf:RDF>
  </metadata>
  <g
     style="display:inline"
     inkscape:label="2"
     inkscape:groupmode="layer"
     id="g4661">
    <rect
       transform="matrix(0,-1,-1,0,0,0)"
       ry="4"
       y="-124"
       x="-94"
       height="112"
       width="76"
       id="rect52455"
       style="opacity:1;fill:#dd4e41;fill-opacity:1;stroke:none;stroke-width:0;stroke-linecap:round;stroke-linejoin:round;stroke-miterlimit:4;stroke-dasharray:none;stroke-dashoffset:0;stroke-opacity:1" />
    <rect
       transform="rotate(-90)"
       ry="0"
       y="12"
       x="-86"
       height="112"
       width="6"
       id="rect52467"
       style="opacity:0.2;fill:#000000;fill-opacity:1;stroke:none;stroke-width:0;stroke-linecap:round;stroke-linejoin:round;stroke-miterlimit:4;stroke-dasharray:none;stroke-dashoffset:0;stroke-opacity:1" />
    <path
       sodipodi:nodetypes="sscsscsss"
       inkscape:connector-curvature="0"
       style="opacity:0.05;fill:#000000;fill-opacity:1;stroke:none;stroke-width:0;stroke-linecap:round;stroke-linejoin:round;stroke-miterlimit:4;stroke-dasharray:none;stroke-dashoffset:0;stroke-opacity:1"
       d="m 16,94 c -2.216,0 -4,-1.784 -4,-4 l 0,-1 c 0,2.216 1.784,4 4,4 l 104,0 c 2.216,0 4,-1.784 4,-4 l 0,1 c 0,2.216 -1.784,4 -4,4 z"
       id="path52463" />
    <rect
       style="opacity:1;fill:#fecd1a;fill-opacity:1;stroke:none;stroke-width:0;stroke-linecap:round;stroke-linejoin:round;stroke-miterlimit:4;stroke-dasharray:none;stroke-dashoffset:0;stroke-opacity:1"
       id="rect52453"
       width="76"
       height="112"
       x="-102"
       y="-120"
       ry="4"
       transform="matrix(0,-1,-1,0,0,0)" />
    <rect
       style="opacity:0.2;fill:#000000;fill-opacity:1;stroke:none;stroke-width:0;stroke-linecap:round;stroke-linejoin:round;stroke-miterlimit:4;stroke-dasharray:none;stroke-dashoffset:0;stroke-opacity:1"
       id="rect52465"
       width="6"
       height="112"
       x="-94"
       y="8"
       ry="0"
       transform="rotate(-90)" />
    <path
       id="path52461"
       d="m 12,102 c -2.216,0 -4,-1.784 -4,-4 l 0,-1 c 0,2.216 1.784,4 4,4 l 104,0 c 2.216,0 4,-1.784 4,-4 l 0,1 c 0,2.216 -1.784,4 -4,4 z"
       style="opacity:0.05;fill:#000000;fill-opacity:1;stroke:none;stroke-width:0;stroke-linecap:round;stroke-linejoin:round;stroke-miterlimit:4;stroke-dasharray:none;stroke-dashoffset:0;stroke-opacity:1"
       inkscape:connector-curvature="0"
       sodipodi:nodetypes="sscsscsss" />
    <rect
       transform="matrix(0,-1,-1,0,0,0)"
       ry="4"
       y="-116"
       x="-110"
       height="112"
       width="76"
       id="rect4705"
       style="opacity:1;fill:#009daf;fill-opacity:1;stroke:none;stroke-width:0;stroke-linecap:round;stroke-linejoin:round;stroke-miterlimit:4;stroke-dasharray:none;stroke-dashoffset:0;stroke-opacity:1" />
    <rect
       transform="rotate(-90)"
       ry="0"
       y="4"
       x="-102"
       height="112"
       width="6"
       id="rect4707"
       style="opacity:0.2;fill:#000000;fill-opacity:1;stroke:none;stroke-width:0;stroke-linecap:round;stroke-linejoin:round;stroke-miterlimit:4;stroke-dasharray:none;stroke-dashoffset:0;stroke-opacity:1" />
    <path
       style="color:#000000;font-style:normal;font-variant:normal;font-weight:normal;font-stretch:normal;font-size:medium;line-height:normal;font-family:Sans;-inkscape-font-specification:Sans;text-indent:0;text-align:start;text-decoration:none;text-decoration-line:none;letter-spacing:normal;word-spacing:normal;text-transform:none;direction:ltr;block-progression:tb;writing-mode:lr-tb;baseline-shift:baseline;text-anchor:start;display:inline;overflow:visible;visibility:visible;opacity:0.2;fill:#000000;fill-opacity:1;stroke:none;stroke-width:3.33333325;marker:none;enable-background:accumulate"
       d="m 28.00001,45.99999 c 3.31372,0 6,2.6864 6,6 0,3.3136 -2.68628,6 -6,6 -3.31372,0 -6,-2.6864 -6,-6 0,-3.3136 2.68628,-6 6,-6 z m 0,16 c 11.99954,-0.006 11.99954,8.00672 11.99954,8.00672 l 0,2 -24,0 0,-2 c 0,0 0,-8 12.00046,-8.00672 z"
       id="path4711"
       inkscape:connector-curvature="0"
       sodipodi:nodetypes="ssssssccccs" />
    <path
       sodipodi:nodetypes="cccc"
       inkscape:connector-curvature="0"
       id="path4713"
       d="m 110,54 -7,6 0,-12 z"
       style="opacity:0.2;fill:#000000;fill-opacity:1;fill-rule:evenodd;stroke:none;stroke-width:0.82678246px;stroke-linecap:butt;stroke-linejoin:miter;stroke-opacity:1" />
    <path
       sodipodi:nodetypes="sscsscsss"
       id="path4719"
       d="m 8,34 c -2.216,0 -4,1.784 -4,4 l 0,1 c 0,-2.216 1.784,-4 4,-4 l 104,0 c 2.216,0 4,1.784 4,4 l 0,-1 c 0,-2.216 -1.784,-4 -4,-4 z"
       style="opacity:0.1;fill:#ffffff;fill-opacity:1;stroke:none;stroke-width:0;stroke-linecap:round;stroke-linejoin:round;stroke-miterlimit:4;stroke-dasharray:none;stroke-dashoffset:0;stroke-opacity:1"
       inkscape:connector-curvature="0" />
    <path
       sodipodi:nodetypes="sscsscsss"
       inkscape:connector-curvature="0"
       style="opacity:0.05;fill:#000000;fill-opacity:1;stroke:none;stroke-width:0;stroke-linecap:round;stroke-linejoin:round;stroke-miterlimit:4;stroke-dasharray:none;stroke-dashoffset:0;stroke-opacity:1"
       d="m 8,110 c -2.216,0 -4,-1.784 -4,-4 l 0,-1 c 0,2.216 1.784,4 4,4 l 104,0 c 2.216,0 4,-1.784 4,-4 l 0,1 c 0,2.216 -1.784,4 -4,4 z"
       id="path4721" />
    <circle
       style="opacity:1;fill:#ffffff;fill-opacity:1;stroke:none;stroke-width:5.33333349;stroke-linecap:round;stroke-linejoin:round;stroke-miterlimit:4;stroke-dasharray:none;stroke-dashoffset:0;stroke-opacity:1"
       id="path4614"
       cx="24"
       cy="88"
       r="3" />
    <circle
       style="opacity:1;fill:#ffffff;fill-opacity:1;stroke:none;stroke-width:5.33333349;stroke-linecap:round;stroke-linejoin:round;stroke-miterlimit:4;stroke-dasharray:none;stroke-dashoffset:0;stroke-opacity:1"
       id="path4616"
       cx="33"
       cy="88"
       r="3" />
    <circle
       r="3"
       cy="88"
       cx="42"
       id="circle4618"
       style="opacity:1;fill:#ffffff;fill-opacity:1;stroke:none;stroke-width:5.33333349;stroke-linecap:round;stroke-linejoin:round;stroke-miterlimit:4;stroke-dasharray:none;stroke-dashoffset:0;stroke-opacity:1" />
    <circle
       r="3"
       cy="88"
       cx="15"
       id="circle52451"
       style="opacity:1;fill:#ffffff;fill-opacity:1;stroke:none;stroke-width:5.33333349;stroke-linecap:round;stroke-linejoin:round;stroke-miterlimit:4;stroke-dasharray:none;stroke-dashoffset:0;stroke-opacity:1" />
    <path
       inkscape:connector-curvature="0"
       style="opacity:0.1;fill:#ffffff;fill-opacity:1;stroke:none;stroke-width:0;stroke-linecap:round;stroke-linejoin:round;stroke-miterlimit:4;stroke-dasharray:none;stroke-dashoffset:0;stroke-opacity:1"
       d="m 12,26 c -2.216,0 -4,1.784 -4,4 l 0,1 c 0,-2.216 1.784,-4 4,-4 l 104,0 c 2.216,0 4,1.784 4,4 l 0,-1 c 0,-2.216 -1.784,-4 -4,-4 z"
       id="path52457"
       sodipodi:nodetypes="sscsscsss" />
    <path
       sodipodi:nodetypes="sscsscsss"
       id="path52459"
       d="m 16,18 c -2.216,0 -4,1.784 -4,4 l 0,1 c 0,-2.216 1.784,-4 4,-4 l 104,0 c 2.216,0 4,1.784 4,4 l 0,-1 c 0,-2.216 -1.784,-4 -4,-4 z"
       style="opacity:0.1;fill:#ffffff;fill-opacity:1;stroke:none;stroke-width:0;stroke-linecap:round;stroke-linejoin:round;stroke-miterlimit:4;stroke-dasharray:none;stroke-dashoffset:0;stroke-opacity:1"
       inkscape:connector-curvature="0" />
    <path
       sodipodi:nodetypes="ssccccccccccssssss"
       inkscape:connector-curvature="0"
       id="path10910"
       d="M 71.999681,45.01665 C 67.029296,45.01665 63,49.045943 63,54.016326 c 0,4.970384 4.029296,8.999689 8.999681,8.999689 3.809287,-0.006 7.202606,-2.408365 8.472361,-5.999789 l 6.52711,-0.0084 L 86.998941,61 l 5.999789,0 2.11e-4,-4 4,-2.12e-4 0,-5.999788 -16.526898,0.01581 c -1.269755,-3.591436 -4.663074,-5.994455 -8.472361,-5.999789 z m 0,5.999788 c 1.656801,0 2.999894,1.34309 2.999894,2.999888 0,1.656799 -1.343093,2.9999 -2.999894,2.9999 -1.656801,0 -2.999894,-1.343101 -2.999894,-2.9999 0,-1.656798 1.343093,-2.999888 2.999894,-2.999888 z"
       style="display:inline;opacity:1;fill:#ffffff;fill-opacity:1;stroke:none;stroke-width:51.73125458;stroke-miterlimit:4;stroke-dasharray:none;stroke-opacity:1;filter:url(#filter5447);enable-background:new" />
    <circle
       r="3"
       cy="88"
       cx="60"
       id="circle52484"
       style="opacity:1;fill:#ffffff;fill-opacity:1;stroke:none;stroke-width:5.33333349;stroke-linecap:round;stroke-linejoin:round;stroke-miterlimit:4;stroke-dasharray:none;stroke-dashoffset:0;stroke-opacity:1" />
    <circle
       r="3"
       cy="88"
       cx="69"
       id="circle52486"
       style="opacity:1;fill:#ffffff;fill-opacity:1;stroke:none;stroke-width:5.33333349;stroke-linecap:round;stroke-linejoin:round;stroke-miterlimit:4;stroke-dasharray:none;stroke-dashoffset:0;stroke-opacity:1" />
    <circle
       style="opacity:1;fill:#ffffff;fill-opacity:1;stroke:none;stroke-width:5.33333349;stroke-linecap:round;stroke-linejoin:round;stroke-miterlimit:4;stroke-dasharray:none;stroke-dashoffset:0;stroke-opacity:1"
       id="circle52488"
       cx="78"
       cy="88"
       r="3" />
    <circle
       style="opacity:1;fill:#ffffff;fill-opacity:1;stroke:none;stroke-width:5.33333349;stroke-linecap:round;stroke-linejoin:round;stroke-miterlimit:4;stroke-dasharray:none;stroke-dashoffset:0;stroke-opacity:1"
       id="circle52490"
       cx="51"
       cy="88"
       r="3" />
    <circle
       r="3"
       cy="88"
       cx="96"
       id="circle52496"
       style="opacity:1;fill:#ffffff;fill-opacity:1;stroke:none;stroke-width:5.33333349;stroke-linecap:round;stroke-linejoin:round;stroke-miterlimit:4;stroke-dasharray:none;stroke-dashoffset:0;stroke-opacity:1" />
    <circle
       r="3"
       cy="88"
       cx="105"
       id="circle52498"
       style="opacity:1;fill:#ffffff;fill-opacity:1;stroke:none;stroke-width:5.33333349;stroke-linecap:round;stroke-linejoin:round;stroke-miterlimit:4;stroke-dasharray:none;stroke-dashoffset:0;stroke-opacity:1" />
    <circle
       style="opacity:1;fill:#ffffff;fill-opacity:1;stroke:none;stroke-width:5.33333349;stroke-linecap:round;stroke-linejoin:round;stroke-miterlimit:4;stroke-dasharray:none;stroke-dashoffset:0;stroke-opacity:1"
       id="circle52502"
       cx="87"
       cy="88"
       r="3" />
  </g>
</svg>
