<?xml version="1.0" encoding="UTF-8" standalone="no"?>
<!-- Created with Inkscape (http://www.inkscape.org/) -->

<svg
   xmlns:dc="http://purl.org/dc/elements/1.1/"
   xmlns:cc="http://creativecommons.org/ns#"
   xmlns:rdf="http://www.w3.org/1999/02/22-rdf-syntax-ns#"
   xmlns:svg="http://www.w3.org/2000/svg"
   xmlns="http://www.w3.org/2000/svg"
   xmlns:sodipodi="http://sodipodi.sourceforge.net/DTD/sodipodi-0.dtd"
   xmlns:inkscape="http://www.inkscape.org/namespaces/inkscape"
   width="20"
   height="20"
   viewBox="0 0 20 20"
   id="SVGRoot"
   version="1.1"
   inkscape:version="0.91+devel+osxmenu r12898"
   sodipodi:docname="toolbar-icon20.svg"
   inkscape:export-filename="/Users/Sam/Projects/Icons/passcards/firefox/toolbar-icon20.png"
   inkscape:export-xdpi="96"
   inkscape:export-ydpi="96">
  <sodipodi:namedview
     id="base"
     pagecolor="#e2e0e1"
     bordercolor="#666666"
     borderopacity="1.0"
     inkscape:pageopacity="0"
     inkscape:pageshadow="2"
     inkscape:zoom="1"
     inkscape:cx="31.165228"
     inkscape:cy="9.884257"
     inkscape:document-units="px"
     inkscape:current-layer="g9113"
     showgrid="false"
     inkscape:window-width="1920"
     inkscape:window-height="970"
     inkscape:window-x="0"
     inkscape:window-y="23"
     inkscape:window-maximized="0"
     inkscape:grid-bbox="true"
     showborder="false"
     inkscape:showpageshadow="false"
     inkscape:object-paths="true"
     inkscape:snap-intersection-paths="true"
     inkscape:object-nodes="true"
     inkscape:snap-smooth-nodes="true"
     inkscape:snap-midpoints="true">
    <inkscape:grid
       type="xygrid"
       id="grid6095"
       empspacing="4" />
  </sodipodi:namedview>
  <defs
     id="defs5538">
    <clipPath
       clipPathUnits="userSpaceOnUse"
       id="clipPath9127">
      <path
         id="path9129"
         d="M 2,2 C 0.892,2 0,2.892 0,4 l 0,9 19,0 0,-9 C 19,2.892 18.108,2 17,2 L 2,2 Z m 7,2.0117188 c 1.269806,0.00178 2.400952,0.8028091 2.824219,2 L 17,6 l 0,2 -1,0.00586 0,1.0273437 -2,0 0,-1.0253906 -2.175781,0.00391 C 11.400952,9.2089057 10.269806,10.009719 9,10.011719 c -1.6568532,0 -3,-1.3431475 -3,-3.0000002 0,-1.6568534 1.3431468,-3 3,-3 z m 0,2 c -0.5522866,-10e-8 -1,0.447713 -1,1 0,0.5522869 0.4477134,1 1,1 0.5522867,0 1,-0.4477131 1,-1 0,-0.552287 -0.4477133,-1 -1,-1 z M 0,14 0,15 c 0,1.108 0.892,2 2,2 l 15,0 c 1.108,0 2,-0.892 2,-2 l 0,-1 -19,0 z"
         style="opacity:1;fill:#000000;fill-opacity:1;stroke:none;stroke-width:2;stroke-linecap:round;stroke-linejoin:round;stroke-miterlimit:4;stroke-dasharray:none;stroke-dashoffset:0;stroke-opacity:1"
         inkscape:connector-curvature="0" />
    </clipPath>
    <clipPath
       clipPathUnits="userSpaceOnUse"
       id="clipPath9164">
      <path
         id="path9166"
         d="M 3,3 C 3,3 1,3 1,5 l 0,8 16,-0.0078 0,-8.0000001 c 0,-1.108 -0.892,-2.0007214 -2,-2 z m 5,2.0117188 c 1.269806,0.00178 2.400952,0.8028091 2.824219,2 L 15,6.9921869 l 0,2 -1,0.00586 0,1.0273441 -2,0 L 12,9 10.824219,9.0117231 C 10.400952,10.208906 9.269806,11.009719 8,11.011719 c -1.6568532,0 -3,-1.3431475 -3,-3.0000002 0,-1.6568534 1.3431468,-3 3,-3 z m 0,2 c -0.5522866,-10e-8 -1,0.447713 -1,1 0,0.5522869 0.4477134,1 1,1 0.5522867,0 1,-0.4477131 1,-1 0,-0.552287 -0.4477133,-1 -1,-1 z M 1,14 1,15 c 0,1.108 0.8920002,2.000721 2,2 l 12,-0.0078 c 1.108,-7.22e-4 2.138496,-0.90069 2,-2 l 0,-1 z"
         style="opacity:1;fill:#ffffff;fill-opacity:1;stroke:none;stroke-width:2;stroke-linecap:round;stroke-linejoin:miter;stroke-miterlimit:4;stroke-dasharray:none;stroke-dashoffset:0;stroke-opacity:1"
         inkscape:connector-curvature="0"
         sodipodi:nodetypes="csccsscccccccccccscssssscsssscc" />
    </clipPath>
  </defs>
  <metadata
     id="metadata5541">
    <rdf:RDF>
      <cc:Work
         rdf:about="">
        <dc:format>image/svg+xml</dc:format>
        <dc:type
           rdf:resource="http://purl.org/dc/dcmitype/StillImage" />
        <dc:title></dc:title>
      </cc:Work>
    </rdf:RDF>
  </metadata>
  <g
     inkscape:label="firefox"
     inkscape:groupmode="layer"
     id="g9113"
     style="display:inline"
     transform="translate(0,1)">
    <path
       sodipodi:nodetypes="csccsscccccccccccscssssscsssscc"
       inkscape:connector-curvature="0"
       style="opacity:0.1;fill:#ffffff;fill-opacity:1;stroke:none;stroke-width:8.45750618;stroke-linecap:round;stroke-linejoin:round;stroke-miterlimit:4;stroke-dasharray:none;stroke-dashoffset:0;stroke-opacity:1"
       d="M 4,3 C 4,3 2,3 2,5 l 0,8 16,-0.0078 0,-8.0000001 c 0,-1.108 -0.892,-2.0007214 -2,-2 z m 5,2.0117188 c 1.269806,0.00178 2.400952,0.8028091 2.824219,2 L 16,6.9921869 l 0,2 -1,0.00586 0,1.0273441 -2,0 L 13,9 11.824219,9.011723 C 11.400952,10.208906 10.269806,11.009719 9,11.011719 c -1.6568532,0 -3,-1.343148 -3,-3.0000002 0,-1.6568534 1.3431468,-3 3,-3 z m 0,2 c -0.5522866,-10e-8 -1,0.447713 -1,1 0,0.5522869 0.4477134,1.0000002 1,1.0000002 0.552287,0 1,-0.4477133 1,-1.0000002 0,-0.552287 -0.447713,-1 -1,-1 z M 2,14 2,15 c 0,1.108 0.8920002,2.000721 2,2 l 12,-0.0078 c 1.108,-7.22e-4 2.138496,-0.90069 2,-2 l 0,-1 z"
       id="path9150" />
    <path
       id="path9117"
       d="M 4,2 C 4,2 2,2 2,4 l 0,8 16,-0.0078 0,-8.0000001 c 0,-1.108 -0.892,-2.0007214 -2,-2 z m 5,2.0117188 c 1.269806,0.00178 2.400952,0.8028091 2.824219,2 L 16,5.9921869 l 0,2 -1,0.00586 0,1.0273441 -2,0 L 13,8 11.824219,8.0117231 C 11.400952,9.208906 10.269806,10.009719 9,10.011719 c -1.6568532,0 -3,-1.3431475 -3,-3.0000002 0,-1.6568534 1.3431468,-3 3,-3 z m 0,2 c -0.5522866,-10e-8 -1,0.447713 -1,1 0,0.5522869 0.4477134,1 1,1 0.552287,0 1,-0.4477131 1,-1 0,-0.552287 -0.447713,-1 -1,-1 z M 2,13 2,14 c 0,1.108 0.8920002,2.000721 2,2 l 12,-0.0078 c 1.108,-7.22e-4 2.138496,-0.90069 2,-2 l 0,-1 z"
       style="opacity:1;fill:#4d4d4d;fill-opacity:1;stroke:none;stroke-width:8.45750618;stroke-linecap:round;stroke-linejoin:round;stroke-miterlimit:4;stroke-dasharray:none;stroke-dashoffset:0;stroke-opacity:1"
       inkscape:connector-curvature="0"
       sodipodi:nodetypes="csccsscccccccccccscssssscsssscc" />
    <path
       clip-path="url(#clipPath9164)"
       id="path9168"
       d="M 3,3 C 3,3 1,3 1,5 l 0,8 16,-0.0078 0,-8.0000001 c 0,-1.108 -0.892,-2.0007214 -2,-2 z m 5,2.0117188 c 1.269806,0.00178 2.400952,0.8028091 2.824219,2 L 15,6.9921869 l 0,2 -1,0.00586 0,1.0273441 -2,0 L 12,9 10.824219,9.0117231 C 10.400952,10.208906 9.269806,11.009719 8,11.011719 c -1.6568532,0 -3,-1.3431475 -3,-3.0000002 0,-1.6568534 1.3431468,-3 3,-3 z m 0,2 c -0.5522866,-10e-8 -1,0.447713 -1,1 0,0.5522869 0.4477134,1 1,1 0.5522867,0 1,-0.4477131 1,-1 0,-0.552287 -0.4477133,-1 -1,-1 z M 1,14 1,15 c 0,1.108 0.8920002,2.000721 2,2 l 12,-0.0078 c 1.108,-7.22e-4 2.138496,-0.90069 2,-2 l 0,-1 z"
       style="opacity:0.05;fill:none;fill-opacity:1;stroke:#000000;stroke-width:4;stroke-linecap:round;stroke-linejoin:miter;stroke-miterlimit:4;stroke-dasharray:none;stroke-dashoffset:0;stroke-opacity:1"
       inkscape:connector-curvature="0"
       sodipodi:nodetypes="csccsscccccccccccscssssscsssscc"
       transform="translate(1,-1)" />
    <path
       sodipodi:nodetypes="csccsscccccccccccscssssscsssscc"
       inkscape:connector-curvature="0"
       style="opacity:0.1;fill:none;fill-opacity:1;stroke:#000000;stroke-width:2;stroke-linecap:round;stroke-linejoin:miter;stroke-miterlimit:4;stroke-dasharray:none;stroke-dashoffset:0;stroke-opacity:1"
       d="M 3,3 C 3,3 1,3 1,5 l 0,8 16,-0.0078 0,-8.0000001 c 0,-1.108 -0.892,-2.0007214 -2,-2 z m 5,2.0117188 c 1.269806,0.00178 2.400952,0.8028091 2.824219,2 L 15,6.9921869 l 0,2 -1,0.00586 0,1.0273441 -2,0 L 12,9 10.824219,9.0117231 C 10.400952,10.208906 9.269806,11.009719 8,11.011719 c -1.6568532,0 -3,-1.3431475 -3,-3.0000002 0,-1.6568534 1.3431468,-3 3,-3 z m 0,2 c -0.5522866,-10e-8 -1,0.447713 -1,1 0,0.5522869 0.4477134,1 1,1 0.5522867,0 1,-0.4477131 1,-1 0,-0.552287 -0.4477133,-1 -1,-1 z M 1,14 1,15 c 0,1.108 0.8920002,2.000721 2,2 l 12,-0.0078 c 1.108,-7.22e-4 2.138496,-0.90069 2,-2 l 0,-1 z"
       id="path9152"
       clip-path="url(#clipPath9164)"
       transform="translate(1,-1)" />
  </g>
</svg>
